<?xml version="1.0" encoding="UTF-8"?>
<svg id="Layer_2" data-name="Layer 2" xmlns="http://www.w3.org/2000/svg" viewBox="0 0 794.09 956.15">
  <defs>
    <style>
      .cls-1 {
        fill: #fff;
      }
    </style>
  </defs>
  <g id="Layer_1-2" data-name="Layer 1">
    <g>
      <path class="cls-1" d="M728.5,502.69c7.56-2.48,15.32-4.99,23.28-4.76,7.96,.23,16.3,3.76,20.13,10.73,2.71,4.93,2.86,10.81,2.93,16.44,.61,44.15,1.23,88.29,1.84,132.44,.07,5.33,.03,11.06-3.01,15.44-3.46,4.98-10.1,6.91-16.13,6.34-6.03-.58-11.64-3.24-17.1-5.87"/>
      <path d="M733.13,519.47c5.5-1.8,11.02-3.58,16.77-4.39l-4.63,.62c3.13-.41,6.27-.53,9.41-.14l-4.63-.62c2.55,.35,5.02,1,7.39,2l-4.16-1.75c1.77,.77,3.43,1.72,4.97,2.89l-3.52-2.72c1.31,1.03,2.48,2.19,3.51,3.51l-2.72-3.52c.85,1.14,1.54,2.35,2.12,3.65l-1.75-4.16c.89,2.13,1.41,4.35,1.73,6.63l-.62-4.63c.56,4.47,.46,9.01,.52,13.51,.07,4.91,.14,9.83,.2,14.74,.14,9.83,.27,19.66,.41,29.49,.27,19.74,.55,39.48,.82,59.22,.08,5.5,.15,11,.23,16.49,.07,5.01,.44,10.13-.21,15.12l.62-4.63c-.25,1.75-.66,3.45-1.34,5.09l1.75-4.16c-.49,1.09-1.07,2.11-1.8,3.06l2.72-3.52c-.68,.84-1.43,1.59-2.27,2.27l3.52-2.72c-1.15,.88-2.39,1.58-3.72,2.14l4.16-1.75c-1.6,.64-3.24,1.05-4.95,1.28l4.63-.62c-1.9,.22-3.77,.2-5.66-.03l4.63,.62c-3.46-.48-6.76-1.57-9.98-2.91l4.16,1.75c-2.1-.89-4.16-1.87-6.22-2.86-2-1.27-4.15-1.96-6.47-2.06-2.31-.52-4.63-.41-6.94,.31-4.04,1.11-8.41,4.23-10.4,8-2.13,4.04-3.2,8.93-1.75,13.41,1.33,4.11,3.95,8.46,8,10.4,4.96,2.38,10,4.81,15.28,6.4,3.36,1.02,6.89,1.45,10.37,1.81,1.67,.17,3.33,.14,4.99-.05,3.09-.35,6.3-.65,9.24-1.77s5.77-2.19,8.21-4.03c1.69-1.27,3.5-2.5,4.97-4.04s2.86-3.39,4.09-5.22c.49-.73,.89-1.51,1.25-2.31,.96-2.14,2-4.34,2.59-6.64,1.3-5.07,1.5-10.39,1.42-15.6-.06-4.58-.13-9.16-.19-13.74-.13-9.16-.25-18.33-.38-27.49-.26-18.41-.51-36.82-.77-55.23-.13-9.16-.25-18.33-.38-27.49-.06-4.33,0-8.68-.26-13.01-.2-3.35-.61-6.72-1.27-10.01s-2.04-6.47-3.49-9.43c-1.34-2.75-3.37-5.23-5.39-7.49s-4.47-3.99-6.84-5.67c-1.97-1.39-4.11-2.3-6.33-3.24s-4.29-1.81-6.59-2.35c-10.7-2.51-21.63-1.09-32.04,2.01-2.1,.63-4.19,1.31-6.27,1.99-4.29,1.41-8.08,4.04-10.4,8-1.27,2-1.96,4.15-2.06,6.47-.52,2.31-.41,4.63,.31,6.94,1.36,4.21,3.97,8.27,8,10.4s8.94,3.22,13.41,1.75h0Z"/>
    </g>
    <g>
      <path class="cls-1" d="M69.11,526.14c-8.06-3.19-16.31-6.43-24.97-6.73-8.66-.31-17.95,2.88-22.7,10.13-4.21,6.42-4.16,14.62-3.97,22.29,.95,37.87,1.91,75.74,2.86,113.61,.13,5.27,.34,10.82,3.1,15.32,3.84,6.28,11.89,8.94,19.23,8.39,7.34-.55,14.19-3.74,20.85-6.87"/>
      <path d="M73.73,509.36c-4.04-1.6-8.09-3.2-12.26-4.45-5.45-1.64-11.19-2.62-16.87-2.89-1.75-.08-3.51-.03-5.25,.17-3.12,.35-6.31,.69-9.35,1.53s-5.86,2.09-8.63,3.41c-1.53,.73-2.96,1.62-4.31,2.64-2.51,1.89-5,3.68-6.97,6.13s-4,4.94-5.31,7.89-2.65,5.96-3.31,9.17-1.09,6.61-1.32,9.93c-.28,4.05-.1,8.12,0,12.18,.12,4.65,.23,9.3,.35,13.95,.47,18.6,.94,37.21,1.4,55.81,.24,9.38,.47,18.77,.71,28.15,.11,4.57,.21,9.14,.35,13.71,.06,1.96,.17,3.92,.41,5.87,.41,3.28,.69,6.72,1.85,9.86,1.09,2.97,2.27,6.03,4.19,8.57,1.27,1.68,2.5,3.46,4,4.95,1.58,1.56,3.48,2.91,5.24,4.2,2.46,1.81,5.31,2.86,8.12,4.02,1.55,.64,3.15,1.13,4.81,1.43,3.02,.55,6.2,1.05,9.29,1.04,3.33-.01,6.71-.55,9.97-1.16,5.47-1.02,10.61-3.32,15.69-5.52,1.94-.84,3.85-1.74,5.76-2.64,2.03-1.09,3.66-2.59,4.88-4.48,1.54-1.68,2.58-3.65,3.11-5.92,.73-2.31,.83-4.63,.31-6.94-.11-2.32-.79-4.47-2.06-6.47-2.4-3.72-5.96-6.99-10.4-8l-4.63-.62c-3.14,0-6.07,.8-8.78,2.38-2.18,1.03-4.37,2.05-6.59,2.99l4.16-1.75c-4.02,1.69-8.14,3.09-12.47,3.69l4.63-.62c-2.4,.3-4.78,.33-7.17,.01l4.63,.62c-2.02-.3-3.99-.82-5.87-1.6l4.16,1.75c-1.52-.66-2.93-1.47-4.25-2.47l3.52,2.72c-1.01-.8-1.91-1.69-2.72-2.7l2.72,3.52c-.87-1.13-1.57-2.34-2.13-3.65l1.75,4.16c-.78-1.93-1.24-3.93-1.53-5.99l.62,4.63c-.51-4.01-.47-8.08-.57-12.11-.11-4.4-.22-8.8-.33-13.2-.22-8.89-.45-17.77-.67-26.66-.44-17.69-.89-35.38-1.33-53.07-.13-4.98-.25-9.97-.38-14.95-.11-4.26-.2-8.53,.37-12.77l-.62,4.63c.35-2.42,.92-4.78,1.86-7.05l-1.75,4.16c.68-1.57,1.53-3.04,2.56-4.41l-2.72,3.52c1.05-1.33,2.23-2.5,3.56-3.55l-3.52,2.72c1.64-1.25,3.42-2.27,5.31-3.09l-4.16,1.75c2.4-1,4.89-1.65,7.46-2.02l-4.63,.62c3.23-.42,6.45-.34,9.67,.08l-4.63-.62c7.24,1.03,14.06,3.69,20.82,6.37,2.31,.73,4.63,.83,6.94,.31,2.32-.11,4.47-.79,6.47-2.06,3.61-2.11,7.05-6.25,8-10.4,1.01-4.45,.79-9.45-1.75-13.41l-2.72-3.52c-2.17-2.16-4.73-3.65-7.68-4.47h0Z"/>
    </g>
    <g>
      <path class="cls-1" d="M155.8,396.37c-24.3-1.09-59.84,4.57-71.88,23.89-12.04,19.32-12.2,43.49-11.98,66.26,1.1,115.16,2.2,230.33,3.3,345.49,.32,33.62,3.54,72.86,31.66,91.3,16.4,10.75,37.22,11.27,56.83,11.44,148.81,1.28,297.62,2.56,446.44,3.84,25.52,.22,52.76-.05,74.02-14.16,17.64-11.71,28.54-31.61,33.66-52.15s5.12-41.97,5.07-63.15c-.21-104.88-.42-209.75-.63-314.63-.05-24.18-.97-50.76-17.15-68.74-18.23-20.25-48.8-22.08-76.04-22.48-157.77-2.31-315.53-4.61-473.3-6.92"/>
      <path d="M155.8,378.97c-14.76-.62-30.02,.88-44.3,4.68s-28.96,10.35-38.22,21.91c-12.63,15.77-16.9,36.03-18.27,55.76-1.27,18.28-.36,36.76-.19,55.06,.77,80.53,1.54,161.06,2.31,241.58,.19,20.35,.39,40.7,.58,61.05,.15,15.45,.11,30.92,2.06,46.27,2.09,16.46,5.65,32.71,14,47.26,9.02,15.72,22.92,26.89,39.8,33.21s36.09,6.26,54.05,6.42c19.96,.17,39.91,.34,59.87,.52,40.35,.35,80.7,.69,121.05,1.04,80.7,.69,161.39,1.39,242.09,2.08,35.53,.31,76.4,3.52,106.4-19.31,15.69-11.94,26.21-27.84,33.3-46.09,6.92-17.8,9.02-37.37,9.71-56.33,.73-19.99,.24-40.06,.2-60.06-.04-19.94-.08-39.87-.12-59.81-.08-40.3-.16-80.61-.24-120.91-.04-20.15-.08-40.3-.12-60.46-.04-18.55,.5-37.21-.45-55.74-.91-17.81-3.75-36.19-13.01-51.75s-24.9-26.76-42.44-32.63c-15.45-5.17-32.28-6.31-48.47-6.73-19.43-.5-38.88-.6-58.31-.88-40.31-.59-80.62-1.18-120.93-1.77-80.62-1.18-161.23-2.36-241.85-3.53-19.5-.29-39.01-.57-58.51-.86-9.1-.13-17.82,8.1-17.4,17.4s7.64,17.26,17.4,17.4c78.88,1.15,157.77,2.31,236.65,3.46,78.45,1.15,156.9,2.28,235.35,3.44,7.62,.11,15.25,.29,22.85,.91,1.64,.13,3.28,.29,4.92,.47,.98,.11,1.96,.27,2.93,.35-5.08-.38-2.53-.35-1.22-.15,3.68,.56,7.33,1.27,10.94,2.18,3.39,.86,6.67,1.97,9.96,3.15s-3.88-1.82-.7-.3c.84,.4,1.69,.78,2.53,1.2,1.66,.84,3.28,1.74,4.86,2.73,1.32,.82,2.54,1.77,3.84,2.62-4.26-2.8-1.61-1.25-.6-.39,.71,.61,1.41,1.25,2.09,1.9,1.16,1.11,2.27,2.28,3.32,3.49l.65,.76c1.14,1.41,.85,1.02-.88-1.17,.48,1.12,1.57,2.22,2.23,3.26,.87,1.38,1.68,2.81,2.43,4.26,.45,.87,.85,1.77,1.28,2.65,1.25,2.54-.55-1.19-.59-1.45,.33,1.84,1.42,3.78,1.98,5.59,.59,1.91,1.1,3.84,1.56,5.78s.85,3.94,1.19,5.93c.11,.67,.21,1.34,.32,2.01,.63,3.72-.47-4.34-.08-.58,.43,4.1,.79,8.18,.98,12.3,.84,17.98,.36,36.06,.4,54.06,.16,78.44,.31,156.88,.47,235.32,.04,19.69,.34,39.39,0,59.08-.16,9.15-.69,18.25-1.68,27.35-.47,4.3,.67-3.97-.05,.3-.21,1.22-.38,2.45-.6,3.68-.36,2.04-.76,4.07-1.2,6.09-.92,4.18-2.04,8.32-3.41,12.38-.59,1.77-1.23,3.51-1.92,5.25-.54,1.38-1.84,2.82,.39-.87-.51,.84-.84,1.88-1.26,2.77-1.72,3.66-3.67,7.22-5.86,10.62-.91,1.41-1.89,2.77-2.84,4.15-2.09,3.01,2.65-3.14,.27-.34-.65,.76-1.28,1.54-1.94,2.29-2.44,2.77-5.11,5.22-7.86,7.67s3.36-2.34,.36-.25c-.83,.58-1.64,1.17-2.47,1.73-1.49,.99-3.02,1.91-4.58,2.78s-4.41,1.6-5.71,2.83c1.66-1.59,3.01-1.19,1.22-.53-1.33,.49-2.64,1-3.98,1.45-3.7,1.24-7.49,2.22-11.32,2.99-1.76,.36-3.52,.65-5.29,.94-3.87,.64,4.25-.46,.34-.03-1.44,.16-2.88,.33-4.32,.47-17.39,1.63-34.99,.85-52.43,.7-19.52-.17-39.05-.34-58.57-.5-39.48-.34-78.96-.68-118.44-1.02-78.53-.68-157.06-1.35-235.58-2.03-9.01-.08-18.04-.02-27.05-.42-3.97-.18-7.91-.51-11.86-.93-3.73-.4,3.37,.55,.9,.11-.88-.16-1.76-.28-2.64-.44-2.27-.41-4.51-.9-6.74-1.5-1.87-.5-3.72-1.06-5.54-1.71-1.15-.41-4.22-2.03,.24,.21-.62-.31-1.28-.57-1.92-.87-1.91-.91-3.77-1.93-5.57-3.05-.81-.51-1.6-1.04-2.38-1.58-1.22-.86-2.77-2.92,.7,.59-2.24-2.27-4.74-4.18-6.85-6.6-.56-.64-1.07-1.35-1.65-1.98,3.29,3.53,1.7,2.29,.91,1.13-1.04-1.55-2.1-3.07-3.05-4.68-.73-1.24-1.42-2.5-2.08-3.79-.69-1.35-3.02-7.17-.8-1.39-1.23-3.19-2.41-6.37-3.36-9.66-.89-3.06-1.63-6.15-2.27-9.27-.37-1.81-.7-3.62-1-5.44-.12-.76-.24-1.53-.36-2.29-.62-4.15,.44,3.85,.06,.48-1.76-15.29-1.8-30.62-1.95-46-.75-78.58-1.5-157.16-2.25-235.74-.19-19.48-.37-38.96-.56-58.45-.18-18.37-.84-36.81-.26-55.18,.13-4.02,.35-8.04,.74-12.04,.11-1.09,.24-2.17,.35-3.25,.43-3.92-.68,4.2-.02,.33,.36-2.13,.73-4.25,1.2-6.36,.86-3.85,2.06-7.54,3.33-11.27s-1.78,3.66-.12,.21c.31-.64,.6-1.29,.91-1.94,1.05-2.15,2.2-4.27,3.52-6.26,2.27-3.43-2.84,3.2-.05,.04,.99-1.12,2.06-2.17,3.19-3.16,.38-.33,.81-.64,1.17-.98-3.69,3.57-2.32,1.75-1.05,.86s2.66-1.76,4.05-2.55,2.9-1.56,4.39-2.26c4.13-1.92-3.78,1.43,.53-.23,3.28-1.26,6.64-2.3,10.04-3.17,3.19-.82,6.43-1.49,9.68-2.04,1.49-.25,6.88-.72,.72-.17,1.78-.16,3.55-.42,5.32-.57,6.14-.54,12.3-.69,18.46-.43,9.11,.38,17.81-8.27,17.4-17.4-.44-9.75-7.64-16.99-17.4-17.4h0Z"/>
    </g>
    <path d="M284.2,771.81c5.11,8.85,11.04,17.14,17.46,25.09,5.55,6.87,11.67,13.29,18.37,19.04,15.86,13.63,34.32,24.6,54.98,28.91,21.61,4.51,43.92,3.21,65.24-2.27,9.03-2.32,17.79-5.98,26.05-10.27,8.69-4.51,16.67-10.13,24.25-16.31s13.64-12.95,19.19-20.64c2.17-3,4.11-6.18,5.68-9.53,2.05-4.36,4.01-8.93,5-13.68,.63-3,1.02-6.07,1.27-9.13,.09-2.4-.41-4.63-1.5-6.7-.7-2.16-1.9-4.02-3.6-5.6-3.02-3.02-7.97-5.29-12.3-5.1s-9.17,1.68-12.3,5.1l-2.72,3.52c-1.57,2.71-2.37,5.64-2.38,8.78-.06,.7-.13,1.4-.23,2.1l.62-4.63c-.5,3.5-1.51,6.89-2.88,10.16l1.75-4.16c-2.03,4.77-4.79,9.17-7.94,13.27l2.72-3.52c-5,6.43-10.96,12.07-17.39,17.05l3.52-2.72c-8.21,6.32-17.21,11.61-26.75,15.64l4.16-1.75c-9.65,4.04-19.88,6.44-30.23,7.86l4.63-.62c-10.62,1.42-21.39,1.62-32.03,.21l4.63,.62c-8.41-1.15-16.65-3.31-24.49-6.6l4.16,1.75c-8.86-3.77-17.14-8.9-24.75-14.77l3.52,2.72c-9.63-7.47-18.17-16.25-25.64-25.87l2.72,3.52c-4.67-6.05-8.91-12.42-12.74-19.05-2.18-3.78-6.2-6.84-10.4-8-2.31-.73-4.63-.83-6.94-.31-2.32,.11-4.47,.79-6.47,2.06-3.72,2.4-6.99,5.96-8,10.4s-.64,9.26,1.75,13.41h0Z"/>
    <path d="M414.49,388.16c.61-20.11,1.21-40.22,1.82-60.33s1.21-40.22,1.82-60.33c.34-11.3,.68-22.6,1.02-33.91,.13-4.38-2.03-9.24-5.1-12.3s-7.97-5.29-12.3-5.1-9.17,1.68-12.3,5.1-4.95,7.54-5.1,12.3c-.61,20.11-1.21,40.22-1.82,60.33s-1.21,40.22-1.82,60.33c-.34,11.3-.68,22.6-1.02,33.91-.13,4.38,2.03,9.24,5.1,12.3s7.97,5.29,12.3,5.1,9.17-1.68,12.3-5.1,4.95-7.54,5.1-12.3h0Z"/>
    <g>
      <path class="cls-1" d="M395.35,94.62c-29.87,3-54.9,31.93-56.26,58.2s15.5,51.07,37.75,65.11c11.9,7.51,25.91,12.56,39.9,11.1,13.35-1.39,25.56-8.63,35.19-17.97,21.86-21.21,31.25-55.83,19.03-83.73-12.22-27.9-45.74-35.71-75.61-32.7Z"/>
      <path d="M395.35,77.22c-4.87,.51-9.75,1.17-14.45,2.57s-9.14,3.28-13.46,5.41c-3.06,1.51-5.99,3.26-8.77,5.23-3.94,2.78-7.78,5.78-11.29,9.09-2.51,2.37-4.84,4.93-6.99,7.63-2.93,3.7-5.8,7.42-8.19,11.49s-4.25,8.39-6.01,12.76c-1.2,2.97-2.17,6.04-2.85,9.18-.97,4.5-1.59,9.15-1.71,13.76-.13,5.09,.53,10.13,1.31,15.15,1.31,8.47,4.5,16.67,8.37,24.28s9.22,14.82,15.03,21.21,12.83,12.12,20.11,16.95c3.48,2.3,7.11,4.37,10.89,6.14,5,2.35,10.17,4.52,15.51,5.98,10.9,2.98,22.11,3.33,33.16,1.04,5.22-1.09,10.15-3.13,15-5.32,3.56-1.61,6.96-3.57,10.17-5.8,7.36-5.12,14.2-11.01,19.79-18.04,5.34-6.72,10.11-13.65,13.58-21.53s6.39-15.87,7.71-24.42,2.01-16.81,.91-25.33c-.64-4.96-1.33-9.85-2.76-14.66s-3.27-9.27-5.44-13.63-4.81-7.79-7.67-11.46c-1.9-2.43-3.99-4.7-6.31-6.75-5.75-5.1-12.13-9.45-19.19-12.49s-14.59-5.68-22.44-7-16.17-2.17-24.33-2.01c-3.23,.06-6.46,.26-9.67,.58-2.4-.09-4.63,.41-6.7,1.5-2.16,.7-4.02,1.9-5.6,3.6-3.02,3.02-5.29,7.97-5.1,12.3s1.68,9.17,5.1,12.3c3.21,2.94,7.78,5.54,12.3,5.1,8.75-.87,17.59-.82,26.31,.34l-4.63-.62c7.16,.98,14.22,2.73,20.9,5.52l-4.16-1.75c4.81,2.04,9.38,4.61,13.52,7.8l-3.52-2.72c3.33,2.6,6.32,5.57,8.91,8.91l-2.72-3.52c2.54,3.33,4.62,6.96,6.27,10.81l-1.75-4.16c2.24,5.32,3.73,10.91,4.51,16.63l-.62-4.63c.83,6.33,.78,12.73-.05,19.06l.62-4.63c-.96,7.13-2.89,14.08-5.68,20.72l1.75-4.16c-2.78,6.53-6.36,12.69-10.68,18.32l2.72-3.52c-4.06,5.23-8.74,9.93-13.96,14l3.52-2.72c-4.46,3.44-9.29,6.37-14.48,8.58l4.16-1.75c-4.16,1.73-8.49,2.96-12.96,3.57l4.63-.62c-4.32,.55-8.67,.49-12.98-.08l4.63,.62c-5.53-.77-10.88-2.36-16.02-4.51l4.16,1.75c-6.79-2.89-13.17-6.69-19.01-11.2l3.52,2.72c-5.88-4.57-11.18-9.84-15.74-15.73l2.72,3.52c-4.02-5.24-7.43-10.93-10.02-17.01l1.75,4.16c-2.24-5.32-3.82-10.88-4.62-16.61l.62,4.63c-.65-4.88-.76-9.84-.11-14.73l-.62,4.63c.67-4.8,2.03-9.47,3.91-13.93l-1.75,4.16c2.28-5.34,5.26-10.34,8.8-14.94l-2.72,3.52c3.73-4.81,8.04-9.14,12.84-12.89l-3.52,2.72c4.46-3.43,9.3-6.33,14.48-8.53l-4.16,1.75c4.52-1.89,9.24-3.23,14.09-3.9l-4.63,.62c.59-.08,1.19-.15,1.79-.21,2.4,.09,4.63-.41,6.7-1.5,2.16-.7,4.02-1.9,5.6-3.6,3.02-3.02,5.29-7.97,5.1-12.3s-1.68-9.17-5.1-12.3c-3.2-2.93-7.8-5.57-12.3-5.1Z"/>
    </g>
    <path d="M299.1,193.62c-15.66,3.17-31.31,6.33-46.97,9.5-2.05,.42-4.17,2.24-5.2,4-1.09,1.86-1.55,4.61-.88,6.7,1.53,4.74,5.91,7.04,10.7,6.08,15.66-3.17,31.31-6.33,46.97-9.5,2.05-.42,4.17-2.24,5.2-4,1.09-1.86,1.55-4.61,.88-6.7-1.53-4.74-5.91-7.04-10.7-6.08h0Z"/>
    <path d="M295.27,129.12c-16-1.74-32-3.48-47.99-5.21-2.08-.23-4.74,1.13-6.15,2.55-1.51,1.51-2.65,3.98-2.55,6.15s.84,4.58,2.55,6.15c1.8,1.65,3.73,2.29,6.15,2.55,16,1.74,32,3.48,47.99,5.21,2.08,.23,4.74-1.13,6.15-2.55,1.51-1.51,2.65-3.98,2.55-6.15s-.84-4.58-2.55-6.15c-1.8-1.65-3.73-2.29-6.15-2.55h0Z"/>
    <path d="M339.45,82.78c-10.83-11.09-21.67-22.17-32.5-33.26-3.19-3.26-9.15-3.44-12.3,0s-3.4,8.83,0,12.3c10.83,11.09,21.67,22.17,32.5,33.26,3.19,3.26,9.15,3.44,12.3,0s3.4-8.83,0-12.3h0Z"/>
    <path d="M404.76,55.68c-2.07-15.66-4.15-31.32-6.22-46.97-.32-2.4-.76-4.36-2.55-6.15-1.51-1.51-3.98-2.65-6.15-2.55s-4.58,.84-6.15,2.55c-1.44,1.57-2.84,3.93-2.55,6.15,2.07,15.66,4.15,31.32,6.22,46.97,.32,2.4,.76,4.36,2.55,6.15,1.51,1.51,3.98,2.65,6.15,2.55s4.58-.84,6.15-2.55c1.44-1.57,2.84-3.93,2.55-6.15h0Z"/>
    <path d="M482.52,82.65c10.48-9.05,20.96-18.09,31.44-27.14,1.61-1.39,2.55-4.09,2.55-6.15s-.95-4.68-2.55-6.15-3.83-2.65-6.15-2.55-4.33,.97-6.15,2.55c-10.48,9.05-20.96,18.09-31.44,27.14-1.61,1.39-2.55,4.09-2.55,6.15s.95,4.68,2.55,6.15,3.83,2.65,6.15,2.55,4.33-.97,6.15-2.55h0Z"/>
    <path d="M519.42,143.23c14.21-1.81,28.42-3.63,42.64-5.44,2.4-.31,4.37-.77,6.15-2.55,1.51-1.51,2.65-3.98,2.55-6.15s-.84-4.58-2.55-6.15c-1.57-1.45-3.92-2.83-6.15-2.55-14.21,1.81-28.42,3.63-42.64,5.44-2.4,.31-4.37,.77-6.15,2.55-1.51,1.51-2.65,3.98-2.55,6.15s.84,4.58,2.55,6.15c1.57,1.45,3.92,2.83,6.15,2.55h0Z"/>
    <path d="M506.33,213.78c16.23,4.08,32.47,8.15,48.7,12.23,4.41,1.11,9.64-1.42,10.7-6.08s-1.35-9.52-6.08-10.7c-16.23-4.08-32.47-8.15-48.7-12.23-4.41-1.11-9.64,1.42-10.7,6.08s1.35,9.52,6.08,10.7h0Z"/>
    <path d="M247.96,684.82c11.38,.43,21.99-1.94,31.84-7.12,10.25-3.33,19.11-9.03,26.6-17.09,8.06-7.49,13.76-16.35,17.09-26.6,5.17-9.85,7.55-20.46,7.12-31.84-.98-7.32-1.97-14.65-2.95-21.97-3.93-14-11.01-26.16-21.26-36.47-5.58-4.31-11.15-8.62-16.73-12.92-12.89-7.48-26.8-11.24-41.72-11.28-11.38-.43-21.99,1.94-31.84,7.12-10.25,3.33-19.11,9.03-26.6,17.09-8.06,7.49-13.76,16.35-17.09,26.6-5.17,9.85-7.55,20.46-7.12,31.84l2.95,21.97c3.93,14,11.01,26.16,21.26,36.47,5.58,4.31,11.15,8.62,16.73,12.92,12.89,7.48,26.8,11.24,41.72,11.28h0Z"/>
    <path d="M546.87,684.82c11.38,.43,21.99-1.94,31.84-7.12,10.25-3.33,19.11-9.03,26.6-17.09,8.06-7.49,13.76-16.35,17.09-26.6,5.17-9.85,7.55-20.46,7.12-31.84-.98-7.32-1.97-14.65-2.95-21.97-3.93-14-11.01-26.16-21.26-36.47-5.58-4.31-11.15-8.62-16.73-12.92-12.89-7.48-26.8-11.24-41.72-11.28-11.38-.43-21.99,1.94-31.84,7.12-10.25,3.33-19.11,9.03-26.6,17.09-8.06,7.49-13.76,16.35-17.09,26.6-5.17,9.85-7.55,20.46-7.12,31.84,.98,7.32,1.97,14.65,2.95,21.97,3.93,14,11.01,26.16,21.26,36.47,5.58,4.31,11.15,8.62,16.73,12.92,12.89,7.48,26.8,11.24,41.72,11.28h0Z"/>
    <path class="cls-1" d="M247.15,660.17c5.99,.23,11.58-1.02,16.76-3.75,5.39-1.75,10.06-4.75,14-8.99,4.24-3.94,7.24-8.61,8.99-14,2.72-5.18,3.97-10.77,3.75-16.76l-1.55-11.56c-2.07-7.37-5.8-13.77-11.19-19.2l-8.8-6.8c-6.78-3.93-14.1-5.91-21.96-5.94-5.99-.23-11.58,1.02-16.76,3.75-5.39,1.75-10.06,4.75-14,8.99-4.24,3.94-7.24,8.61-8.99,14-2.72,5.18-3.97,10.77-3.75,16.76l1.55,11.56c2.07,7.37,5.8,13.77,11.19,19.2l8.8,6.8c6.78,3.93,14.1,5.91,21.96,5.94h0Z"/>
    <path class="cls-1" d="M547.03,662.32c5.99,.23,11.58-1.02,16.76-3.75,5.39-1.75,10.06-4.75,14-8.99,4.24-3.94,7.24-8.61,8.99-14,2.72-5.18,3.97-10.77,3.75-16.76l-1.55-11.56c-2.07-7.37-5.8-13.77-11.19-19.2l-8.8-6.8c-6.78-3.93-14.1-5.91-21.96-5.94-5.99-.23-11.58,1.02-16.76,3.75-5.39,1.75-10.06,4.75-14,8.99-4.24,3.94-7.24,8.61-8.99,14-2.72,5.18-3.97,10.77-3.75,16.76l1.55,11.56c2.07,7.37,5.8,13.77,11.19,19.2l8.8,6.8c6.78,3.93,14.1,5.91,21.96,5.94h0Z"/>
    <path d="M79.98,799.36c12.56-.12,25.17-.21,37.66,1.42l-2.31-.31c8.66,1.17,17.17,3.2,25.24,6.58l-2.08-.88c5.51,2.34,10.74,5.27,15.5,8.91l-1.76-1.36c3.77,2.92,7.19,6.25,10.12,10.02l-1.36-1.76c3.14,4.09,5.67,8.58,7.67,13.32l-.88-2.08c3.05,7.35,4.82,15.13,5.88,23l-.31-2.31c2.4,18.32,.72,36.86,2.78,55.2,.67,6.01,1.6,11.98,3.16,17.83,1.17,4.4,6.26,7.52,10.7,6.08s7.33-5.99,6.08-10.7c-1.1-4.1-1.89-8.27-2.48-12.48l.31,2.31c-3.54-26.36,1.12-53.78-7.75-79.38-2.14-6.18-4.91-12.24-8.69-17.6s-8.45-10.28-13.82-14.43c-9.97-7.7-21.92-12.73-34.2-15.4-16.25-3.54-32.93-3.54-49.47-3.38-4.55,.04-8.91,3.97-8.7,8.7s3.82,8.75,8.7,8.7h0Z"/>
    <path d="M720.53,770.83c-17.05-.68-34.08-1.12-50.97,1.75-13.91,2.37-27.86,7.52-39.14,16.14-6.31,4.82-11.74,10.31-16.12,16.97s-7.3,13.98-9.52,21.46c-2.07,6.96-3.44,14.1-4.75,21.24-1.53,8.34-3.04,16.68-4.56,25.03-3.04,16.69-6.08,33.38-9.12,50.07-.39,2.13-.78,4.25-1.16,6.38-.43,2.35-.36,4.58,.88,6.7,1.06,1.8,3.13,3.53,5.2,4,2.23,.51,4.73,.4,6.7-.88,1.81-1.17,3.6-3,4-5.2,2.8-15.38,5.6-30.76,8.41-46.15s5.12-29.64,8.18-44.35c1.53-7.35,3.42-14.65,6.34-21.58l-.88,2.08c2.02-4.73,4.52-9.22,7.65-13.3l-1.36,1.76c3.09-3.98,6.69-7.49,10.66-10.57l-1.76,1.36c4.96-3.79,10.42-6.85,16.16-9.29l-2.08,.88c7.98-3.35,16.37-5.41,24.93-6.59l-2.31,.31c14.8-1.99,29.76-1.42,44.63-.83,4.55,.18,8.9-4.13,8.7-8.7-.22-4.87-3.82-8.51-8.7-8.7h0Z"/>
  </g>
</svg>